<?xml version="1.0" standalone="no"?>
<!DOCTYPE svg PUBLIC "-//W3C//DTD SVG 20010904//EN"
 "http://www.w3.org/TR/2001/REC-SVG-20010904/DTD/svg10.dtd">
<svg version="1.0" xmlns="http://www.w3.org/2000/svg"
 width="1024.000000pt" height="1024.000000pt" viewBox="0 0 1024.000000 1024.000000"
 preserveAspectRatio="xMidYMid meet">

<g transform="translate(0.000000,1024.000000) scale(0.100000,-0.100000)"
fill="#000000" stroke="none">
<path d="M4681 10141 c-15 -9 -13 -31 19 -221 5 -30 19 -125 30 -210 12 -85
25 -182 31 -216 32 -210 -13 -354 -140 -445 -65 -47 -126 -66 -231 -75 -129
-11 -230 24 -304 106 -73 81 -87 130 -136 485 -11 83 -24 173 -30 200 -5 28
-14 93 -21 145 -16 132 -10 123 -76 114 -32 -3 -59 -7 -60 -8 -5 -4 101 -736
117 -806 28 -121 125 -251 220 -296 88 -42 106 -46 210 -51 128 -6 214 10 323
61 207 96 291 291 247 576 -12 72 -27 187 -40 295 -12 105 -28 219 -41 291
l-11 64 -47 0 c-25 0 -52 -4 -60 -9z"/>
<path d="M5317 10099 c-3 -30 -11 -94 -16 -144 -6 -49 -15 -112 -20 -140 -6
-27 -17 -117 -26 -200 -16 -148 -44 -367 -71 -559 -7 -55 -12 -101 -10 -103 1
-2 30 -6 63 -9 l60 -7 7 69 c30 283 45 387 54 396 5 5 39 4 78 -2 38 -7 116
-15 173 -19 120 -9 102 5 194 -149 34 -57 70 -116 79 -130 10 -15 35 -58 57
-97 76 -135 83 -145 121 -154 63 -16 120 -23 120 -14 0 10 -95 169 -217 364
-46 72 -83 137 -83 143 0 6 29 17 64 24 126 23 211 80 255 168 13 27 28 57 32
66 18 35 10 204 -11 261 -45 121 -173 204 -340 222 -36 3 -121 13 -190 21 -69
9 -159 19 -200 24 -41 4 -96 11 -121 15 l-46 7 -6 -53z m453 -110 c175 -22
238 -43 287 -95 46 -50 57 -84 58 -174 0 -76 -3 -90 -28 -133 -37 -62 -94
-103 -165 -118 -55 -11 -81 -10 -252 10 -41 5 -124 15 -183 22 -69 8 -111 17
-114 25 -7 20 15 221 44 398 l17 99 85 -7 c47 -3 160 -16 251 -27z"/>
<path d="M3295 9855 c-16 -8 -50 -23 -75 -34 -60 -26 -190 -81 -270 -116 -36
-15 -87 -38 -115 -50 -48 -22 -259 -111 -357 -151 -46 -18 -62 -44 -38 -59 6
-3 10 -14 10 -23 1 -42 14 -43 96 -8 43 18 120 50 169 71 50 21 105 44 122 52
43 20 58 13 73 -34 7 -21 23 -60 35 -88 12 -27 39 -90 59 -140 21 -49 44 -103
51 -120 7 -16 23 -55 35 -85 11 -30 27 -68 34 -85 24 -53 84 -198 116 -280 63
-158 48 -144 119 -114 l49 22 -14 39 c-7 21 -43 109 -79 196 -37 86 -70 166
-75 177 -4 11 -17 41 -29 67 -12 26 -21 50 -21 53 0 4 -10 27 -22 53 -11 26
-54 126 -94 222 -85 204 -91 179 60 243 50 21 118 51 151 67 33 15 70 30 83
34 26 9 27 14 6 66 -18 43 -30 47 -79 25z"/>
<path d="M6827 9815 c-170 -63 -260 -268 -188 -430 25 -56 103 -132 262 -252
147 -111 167 -130 198 -186 55 -99 -4 -251 -113 -287 -144 -47 -418 102 -540
293 l-37 58 -28 -17 c-15 -9 -37 -24 -49 -33 l-21 -16 34 -49 c47 -69 166
-188 233 -233 32 -20 100 -55 152 -77 90 -38 100 -40 200 -41 79 0 112 4 135
16 59 33 124 100 152 157 24 50 28 69 28 148 0 90 -1 92 -39 148 -52 76 -102
120 -290 259 -44 32 -98 79 -119 102 -87 98 -71 238 34 310 40 27 51 30 124
30 85 0 104 -7 215 -71 70 -41 202 -173 216 -216 8 -25 13 -23 62 20 l44 37
-42 57 c-143 199 -453 335 -623 273z"/>
<path d="M7917 9313 c-49 -72 -233 -326 -330 -456 -104 -139 -157 -264 -157
-369 0 -78 46 -216 92 -274 48 -62 136 -136 208 -176 143 -80 267 -96 391 -48
115 43 187 112 347 331 62 85 118 161 125 169 7 9 28 38 46 65 19 28 38 52 41
55 3 3 22 27 41 55 18 27 49 69 67 94 31 41 32 45 15 54 -10 6 -31 21 -46 34
-16 12 -32 23 -35 23 -4 0 -18 -17 -32 -37 -26 -38 -163 -225 -205 -278 -12
-16 -41 -55 -64 -85 -22 -30 -44 -60 -48 -65 -4 -6 -33 -44 -64 -85 -76 -100
-119 -144 -183 -185 -141 -90 -284 -65 -442 79 -94 86 -128 157 -128 266 1 61
6 86 29 134 24 51 70 127 97 161 5 6 49 66 100 135 50 69 104 143 120 165 167
230 173 238 154 249 -10 6 -30 21 -44 33 -15 13 -32 23 -38 23 -6 0 -32 -30
-57 -67z"/>
<path d="M1780 9079 c-14 -12 -32 -27 -42 -33 -15 -11 -14 -23 12 -156 16 -80
67 -341 114 -580 47 -239 93 -479 103 -532 9 -54 22 -98 28 -98 5 0 30 17 54
38 l43 37 -17 85 c-9 47 -26 125 -36 175 l-20 90 33 27 c18 15 38 28 45 28 6
0 13 4 15 9 4 11 457 351 468 351 5 0 32 -13 60 -30 28 -16 53 -30 55 -30 2 0
42 -25 89 -55 46 -30 89 -55 95 -55 6 0 34 16 62 35 50 34 50 34 27 48 -13 8
-86 52 -163 97 -77 45 -156 92 -175 105 -19 12 -62 37 -95 55 -33 18 -76 42
-95 53 -19 11 -44 25 -55 31 -11 6 -34 21 -52 34 -17 12 -34 22 -37 22 -3 0
-77 42 -164 94 -214 127 -302 176 -315 176 -7 -1 -23 -10 -37 -21z m125 -149
c24 -16 47 -30 50 -30 4 0 19 -8 33 -19 15 -10 43 -28 62 -39 19 -10 82 -48
140 -84 58 -35 112 -67 120 -71 8 -4 38 -21 65 -37 28 -17 60 -35 73 -40 34
-15 27 -36 -25 -72 -27 -18 -52 -36 -58 -40 -5 -5 -41 -32 -80 -60 -38 -28
-72 -54 -75 -57 -8 -9 -119 -92 -165 -123 -22 -15 -43 -24 -47 -20 -3 4 -21
77 -38 162 -39 186 -41 196 -79 380 -31 146 -36 180 -25 180 3 0 25 -13 49
-30z"/>
<path d="M9169 8419 c-13 -12 -62 -54 -109 -93 -47 -39 -90 -75 -96 -81 -6 -5
-39 -35 -74 -65 -59 -51 -123 -107 -210 -184 -19 -17 -51 -44 -70 -60 -19 -16
-64 -54 -100 -86 -123 -108 -166 -145 -208 -180 -47 -39 -49 -43 -24 -68 9 -9
26 -30 37 -45 l20 -28 90 81 c168 152 283 250 292 250 6 0 26 -19 44 -42 19
-23 69 -82 112 -132 66 -77 77 -95 74 -121 -2 -16 -27 -131 -55 -255 -28 -124
-53 -248 -57 -275 -6 -49 -5 -51 44 -103 l49 -52 12 72 c6 40 18 96 25 123 8
28 23 97 35 155 11 58 25 123 30 145 5 22 11 52 15 68 6 32 25 35 50 7 10 -11
24 -20 32 -20 7 0 13 -4 13 -10 0 -5 9 -10 19 -10 11 0 26 -6 33 -14 21 -21
125 -39 182 -32 89 10 184 71 259 165 34 43 50 103 51 191 0 136 -28 182 -334
546 -41 49 -83 98 -93 109 -11 11 -26 30 -34 43 -19 27 -24 27 -54 1z m122
-251 c46 -57 96 -116 110 -133 141 -158 164 -200 163 -295 -1 -52 -7 -75 -28
-112 -73 -127 -220 -181 -332 -122 -64 33 -95 64 -217 209 -55 66 -120 141
-144 166 -27 28 -41 51 -37 60 3 8 65 64 137 124 72 61 154 131 182 157 27 26
57 48 66 48 9 0 54 -46 100 -102z"/>
<path d="M930 8283 c-38 -52 -43 -40 45 -108 21 -16 52 -42 69 -56 17 -15 60
-50 96 -78 36 -28 72 -57 80 -64 8 -7 33 -26 55 -42 22 -16 42 -32 45 -36 3
-3 30 -24 60 -46 30 -22 69 -52 85 -67 17 -14 69 -54 118 -88 48 -34 87 -69
87 -77 0 -12 -55 -13 -418 -7 -230 4 -526 4 -657 0 l-240 -7 -29 -40 c-27 -39
-28 -41 -10 -54 11 -8 28 -22 39 -31 11 -10 38 -31 60 -47 22 -16 42 -32 45
-35 3 -3 34 -28 70 -55 66 -50 93 -72 114 -90 6 -6 47 -37 91 -70 44 -33 82
-62 85 -65 3 -3 88 -68 190 -144 102 -77 187 -142 190 -145 11 -13 81 -63 84
-60 1 2 13 20 27 39 14 19 28 40 32 47 4 7 -37 44 -106 96 -128 97 -346 263
-461 351 -43 34 -104 79 -136 101 -103 72 -114 81 -105 95 7 11 132 12 669 6
l661 -7 29 42 c33 47 39 35 -45 100 -19 15 -63 49 -99 77 -36 28 -108 84 -160
124 -52 39 -97 75 -100 78 -3 3 -23 18 -45 35 -22 16 -42 32 -45 35 -3 4 -59
49 -125 100 -66 51 -122 96 -125 100 -8 10 -177 140 -182 140 -3 0 -20 -21
-38 -47z"/>
<path d="M1992 6763 c-79 -169 -95 -207 -165 -388 -87 -227 -169 -478 -197
-605 -5 -19 -15 -60 -23 -90 -23 -88 -44 -188 -62 -290 -9 -52 -20 -117 -25
-145 -8 -48 -23 -197 -21 -212 2 -13 100 2 231 37 79 21 336 101 352 110 10 6
27 10 38 10 11 0 20 4 20 9 0 5 10 12 23 14 l22 4 -23 2 c-12 0 -26 9 -29 19
-4 9 -11 20 -17 24 -8 5 -7 11 1 19 7 7 8 21 1 45 -5 19 -6 38 -3 43 3 5 0 13
-6 17 -8 5 -9 3 -4 -6 5 -8 4 -11 -2 -7 -6 4 -10 34 -9 67 2 37 -2 60 -8 60
-11 0 -20 89 -18 180 0 25 1 76 1 113 0 37 3 73 7 79 4 7 6 33 5 59 -1 26 2
49 7 53 5 3 10 22 11 43 2 21 3 46 4 56 1 9 5 17 9 17 4 0 8 11 8 25 0 14 5
25 11 25 6 0 9 7 6 15 -4 8 -2 17 3 20 6 4 10 16 10 29 0 14 9 27 23 34 19 9
19 11 3 11 -14 1 -17 6 -12 24 3 12 6 28 6 35 0 7 8 12 17 10 13 -2 18 5 20
27 1 16 -3 32 -8 36 -8 5 -8 9 0 13 6 4 11 4 11 -1 0 -4 11 -9 25 -9 14 -1 25
0 25 2 0 2 -13 25 -30 51 -16 26 -30 53 -30 61 0 7 -4 10 -10 7 -5 -3 -10 2
-10 12 0 10 -13 45 -28 78 -16 33 -43 103 -62 155 -18 52 -36 99 -40 103 -4 4
-30 -41 -58 -100z"/>
<path d="M8176 6825 c-10 -27 -24 -64 -32 -82 -8 -17 -14 -36 -14 -42 0 -6 -4
-19 -9 -29 -24 -45 -39 -87 -35 -94 3 -4 0 -8 -6 -8 -7 0 -9 -7 -6 -16 3 -8 2
-12 -3 -9 -5 3 -12 1 -15 -4 -4 -5 -2 -12 3 -16 13 -7 12 -115 0 -115 -5 0 -9
-7 -9 -15 0 -8 7 -15 15 -15 8 0 15 -5 15 -11 0 -5 -4 -7 -10 -4 -21 13 -9
-35 13 -50 17 -12 19 -17 8 -24 -16 -10 -6 -31 15 -31 8 0 12 -4 9 -10 -3 -5
-1 -20 6 -32 6 -12 14 -38 16 -57 3 -20 9 -38 14 -39 5 -2 7 -7 4 -12 -3 -5
-1 -20 5 -34 5 -14 12 -59 16 -99 3 -39 8 -85 10 -102 2 -16 3 -79 2 -140 -1
-60 -1 -131 -1 -157 1 -27 -3 -48 -7 -48 -5 0 -7 -13 -5 -30 2 -16 0 -32 -6
-35 -5 -4 -7 -11 -3 -16 3 -5 0 -16 -6 -24 -6 -8 -9 -19 -5 -25 3 -5 1 -10 -4
-10 -6 0 -11 -5 -11 -11 0 -5 4 -8 10 -4 5 3 3 -7 -5 -21 -8 -15 -12 -31 -9
-36 3 -4 -2 -18 -10 -30 -9 -12 -16 -30 -16 -40 0 -18 -10 -21 -60 -19 -14 0
-18 -2 -10 -5 8 -3 24 -9 35 -14 11 -5 49 -19 85 -30 36 -11 74 -25 85 -30 57
-26 357 -106 468 -125 l37 -6 -5 38 c-3 21 -9 72 -15 113 -9 69 -16 114 -40
255 -18 106 -73 331 -83 341 -4 4 -7 16 -7 27 0 12 -4 34 -10 51 -88 286 -126
395 -196 576 -46 119 -104 257 -129 308 -25 51 -45 97 -45 102 0 6 -4 10 -9
10 -5 0 -11 8 -13 18 -2 10 -11 -3 -22 -33z"/>
<path d="M8045 6500 c3 -5 8 -10 11 -10 2 0 4 5 4 10 0 6 -5 10 -11 10 -5 0
-7 -4 -4 -10z"/>
<path d="M7996 6425 c-3 -9 -6 -22 -5 -28 0 -7 5 -1 10 12 5 13 8 26 5 28 -2
2 -6 -3 -10 -12z"/>
<path d="M7966 6374 c-8 -22 -4 -25 11 -9 7 8 9 16 4 19 -5 3 -12 -1 -15 -10z"/>
<path d="M7731 5118 c-22 -110 -38 -161 -70 -223 -30 -57 -38 -111 -18 -126 5
-3 5 -18 1 -32 -5 -21 -12 -27 -33 -27 -22 -1 -24 -2 -8 -11 24 -14 21 -30 -5
-26 -13 2 -17 2 -10 0 15 -5 16 -25 2 -39 -16 -16 0 -46 21 -41 21 6 43 -16
36 -35 -4 -8 -6 -7 -6 5 -1 21 -31 23 -31 2 0 -8 12 -18 26 -21 19 -5 22 -9
12 -15 -10 -7 -9 -9 5 -9 11 0 20 -10 23 -29 6 -28 7 -28 91 -35 142 -11 147
-23 78 -161 -24 -50 -45 -96 -45 -102 0 -20 -43 -103 -53 -103 -4 0 -6 -4 -3
-9 3 -5 -4 -11 -17 -15 -12 -3 -40 -23 -61 -45 -30 -30 -37 -45 -33 -63 9 -32
57 -52 90 -37 20 9 32 8 55 -2 29 -12 30 -16 41 -113 20 -184 20 -210 3 -228
-14 -16 -14 -18 1 -18 14 0 17 -10 17 -50 0 -87 -36 -303 -60 -355 -5 -11 -19
-43 -30 -72 -25 -60 -54 -82 -107 -85 -37 -1 -37 -1 -5 -5 17 -2 32 -9 32 -14
0 -6 -16 -30 -35 -53 -41 -50 -41 -51 -17 -77 24 -25 43 -18 65 24 40 72 188
207 228 207 23 0 49 -49 78 -147 12 -40 23 -73 25 -73 6 0 112 58 166 91 73
45 280 200 280 210 0 4 -8 14 -19 21 -10 7 -49 41 -87 74 -38 34 -88 77 -111
95 -23 19 -42 37 -42 40 -1 3 43 20 97 38 l98 34 105 -72 c97 -66 129 -82 129
-63 0 4 -45 36 -100 71 -55 35 -100 67 -100 71 0 9 79 41 161 65 l56 17 80
-41 c44 -22 83 -37 87 -34 16 16 1 32 -54 58 -33 16 -58 30 -56 33 3 2 71 31
153 63 131 53 153 65 193 108 54 58 159 191 254 321 38 52 81 111 95 130 42
56 221 332 276 425 16 28 34 58 40 67 5 9 31 56 57 105 25 48 63 120 84 160
21 40 36 74 33 77 -3 3 -34 -4 -69 -15 -126 -40 -195 -60 -240 -69 -147 -28
-298 -49 -387 -55 -135 -9 -480 18 -578 45 -16 5 -51 11 -77 15 -45 6 -48 5
-63 -24 -15 -31 -16 -31 -101 -31 -100 0 -104 8 -28 58 52 34 37 46 -18 12
-45 -27 -50 -25 -42 15 4 21 2 35 -4 35 -11 0 -22 -34 -22 -72 0 -20 -15 -39
-57 -77 -32 -28 -63 -51 -69 -51 -7 0 -9 30 -7 88 3 102 -10 78 -21 -38 -7
-67 -11 -78 -39 -102 -38 -33 -31 -47 8 -16 28 21 28 21 109 5 44 -10 92 -20
105 -24 18 -4 22 -2 19 8 -3 8 -36 21 -77 31 -40 9 -75 19 -78 22 -9 8 5 22
59 60 l53 36 85 -15 c47 -8 86 -15 87 -15 1 0 -2 -10 -6 -22 -16 -54 -56 -113
-119 -174 -62 -61 -70 -65 -102 -60 -22 3 -30 2 -21 -3 24 -15 4 -38 -47 -55
-98 -33 -288 -12 -286 31 0 12 -6 20 -15 19 -26 -2 -27 122 -2 195 24 73 78
152 97 145 8 -3 14 1 14 10 0 20 64 80 108 101 39 19 41 31 5 39 -16 4 -32 10
-38 14 -5 4 -26 11 -45 15 -19 4 -39 11 -45 15 -5 5 -32 11 -59 15 -39 6 -47
5 -41 -5 5 -8 4 -11 -3 -6 -6 4 -8 14 -5 23 5 13 1 15 -20 11 -15 -3 -24 -1
-21 3 3 5 1 9 -5 9 -5 0 -16 2 -24 6 -11 4 -17 -10 -26 -58z m1531 -283 c2 -3
-17 -66 -42 -142 l-47 -137 -99 -63 c-54 -35 -105 -63 -112 -63 -9 0 -12 9 -8
28 3 15 10 61 16 102 7 41 16 92 21 113 11 41 6 59 -15 51 -8 -3 -17 -28 -20
-57 -4 -29 -16 -92 -27 -142 -11 -49 -22 -99 -24 -110 -4 -19 -33 -41 -113
-87 -76 -44 -107 -57 -111 -46 -2 6 2 96 9 199 l13 189 31 22 c50 37 106 64
191 92 109 35 320 68 337 51z m196 -16 c121 -14 135 -21 96 -44 -16 -10 -45
-28 -64 -40 -69 -44 -214 -127 -238 -136 -18 -7 -23 -6 -19 3 2 7 19 61 37
121 38 124 22 115 188 96z m132 -136 c-28 -87 -99 -225 -114 -221 -6 2 -64 19
-129 38 -115 33 -117 35 -96 51 28 21 254 150 292 166 15 7 35 19 44 28 25 26
26 10 3 -62z m-943 -322 l-12 -115 -105 -63 c-58 -35 -111 -63 -117 -63 -19 0
-17 104 3 171 30 104 113 238 190 309 l49 45 2 -85 c2 -47 -3 -137 -10 -199z
m629 115 c43 -13 103 -29 132 -36 28 -6 52 -14 52 -17 0 -14 -100 -143 -159
-206 -69 -73 -192 -163 -242 -177 -25 -8 -44 0 -142 57 -202 118 -217 127
-217 133 0 3 47 31 104 63 l104 58 152 -60 c151 -61 180 -69 180 -52 0 11 -34
32 -90 55 -25 10 -54 22 -65 27 -11 5 -42 17 -70 27 -27 11 -51 24 -52 29 -2
5 14 18 34 30 21 11 67 36 103 56 36 20 72 37 81 37 8 0 51 -11 95 -24z
m-1067 -148 c5 -13 12 -43 16 -67 6 -39 5 -46 -16 -63 l-24 -19 25 3 c24 3 25
1 28 -60 3 -71 -19 -153 -50 -184 -10 -10 -16 -23 -14 -27 3 -5 -12 -29 -34
-54 -75 -85 -182 -100 -228 -33 -29 43 -52 117 -52 168 0 50 53 158 107 218
44 49 184 140 216 140 10 0 21 -10 26 -22z m571 -195 c52 -31 117 -69 144 -86
l49 -31 -31 -13 c-56 -23 -202 -35 -278 -23 -61 9 -234 79 -234 94 0 21 208
126 235 119 11 -3 63 -30 115 -60z m-62 -299 c23 -3 42 -9 42 -14 0 -6 -24
-56 -54 -112 -48 -93 -58 -106 -102 -130 -66 -37 -164 -70 -164 -55 0 6 18 56
39 111 53 139 55 146 38 146 -14 0 -64 -119 -83 -197 -18 -69 -36 -86 -134
-120 -51 -18 -95 -31 -98 -28 -5 4 41 244 59 308 7 25 16 37 27 37 10 0 22 4
28 9 17 15 119 43 184 50 65 6 138 5 218 -5z m220 -53 c46 -14 84 -30 85 -36
1 -5 -59 -33 -133 -61 -74 -28 -145 -56 -157 -62 -12 -5 -24 -8 -27 -5 -4 4
22 68 66 161 23 50 20 50 166 3z m-703 -73 c-4 -24 -15 -70 -25 -103 -10 -33
-24 -87 -30 -120 -7 -33 -16 -65 -21 -71 -5 -7 -38 -22 -72 -35 -34 -13 -55
-25 -45 -27 9 -2 33 4 53 12 69 29 81 23 199 -88 73 -70 106 -107 101 -116
-12 -19 -166 -6 -239 19 -97 34 -203 107 -193 134 2 6 -2 20 -10 29 -44 50
106 305 225 383 55 36 65 33 57 -17z"/>
<path d="M8161 4294 c-23 -65 -23 -71 -1 -29 11 22 19 46 18 54 -2 8 -9 -4
-17 -25z"/>
<path d="M8107 4163 c-4 -3 -7 -11 -7 -17 0 -6 5 -5 12 2 6 6 9 14 7 17 -3 3
-9 2 -12 -2z"/>
<path d="M8051 4036 c-13 -16 -2 -29 16 -18 7 4 8 13 4 20 -6 10 -10 10 -20
-2z"/>
<path d="M2425 5158 c-16 -5 -39 -13 -50 -18 -11 -5 -78 -26 -149 -46 -105
-31 -126 -40 -112 -48 85 -50 139 -90 143 -104 2 -10 14 -22 26 -27 36 -16 89
-137 95 -216 6 -88 -2 -123 -28 -116 -17 4 -18 2 -9 -15 13 -25 12 -26 -52
-44 -70 -18 -108 -18 -188 2 -84 21 -97 31 -75 55 17 18 16 19 -15 8 -30 -11
-35 -9 -89 38 -58 50 -119 131 -139 183 l-10 28 71 11 c39 6 80 13 92 17 12 3
27 0 35 -8 8 -7 31 -26 52 -41 20 -16 37 -37 37 -48 0 -13 7 -19 21 -19 11 0
34 -9 51 -21 36 -26 53 -15 18 12 -47 36 -50 40 -51 67 -1 17 -3 20 -6 10 -7
-28 -25 -22 -83 31 -48 43 -54 54 -59 97 -5 37 -10 50 -25 52 -19 4 -19 4 1
-45 8 -20 -15 -15 -39 7 -22 20 -58 27 -58 12 0 -5 18 -21 40 -38 22 -16 40
-34 40 -40 0 -12 -133 -29 -149 -19 -5 3 -12 18 -16 34 -8 38 -21 42 -86 25
-30 -8 -97 -19 -149 -24 -52 -6 -134 -15 -181 -20 -270 -31 -563 5 -884 108
-49 16 -91 26 -93 22 -4 -12 96 -199 214 -401 78 -134 205 -333 216 -337 5 -2
8 -8 8 -14 0 -11 -2 -8 181 -253 74 -99 160 -207 191 -241 54 -57 68 -66 218
-130 88 -38 158 -73 157 -79 -2 -5 -30 -20 -63 -33 -69 -28 -73 -31 -56 -41 8
-4 42 6 83 26 38 18 78 33 88 33 11 0 57 -14 103 -31 136 -50 132 -48 118 -64
-7 -8 -24 -21 -39 -28 -141 -73 -176 -96 -162 -110 6 -6 48 16 113 59 56 37
110 69 119 71 24 7 179 -56 179 -72 0 -7 -16 -23 -35 -35 -20 -12 -41 -27 -48
-34 -6 -6 -49 -39 -94 -73 l-83 -62 37 -28 c21 -15 44 -33 53 -40 40 -32 157
-116 189 -135 20 -12 42 -28 49 -35 7 -7 17 -13 22 -13 5 0 33 -14 61 -31 58
-34 63 -32 75 36 3 22 19 66 35 98 43 85 59 81 179 -40 53 -54 103 -109 112
-123 l16 -25 26 24 c14 14 26 19 26 13 0 -7 6 -12 14 -12 8 0 -1 16 -21 38
-81 87 -83 95 -23 105 14 2 4 5 -21 6 -40 1 -50 6 -71 34 -35 46 -85 190 -97
277 -19 139 -23 228 -12 235 7 4 8 12 1 24 -6 12 -5 53 5 122 28 208 26 200
46 194 11 -4 19 -1 19 6 0 11 51 8 97 -7 13 -4 14 -3 5 3 -10 8 -10 12 3 23
11 9 15 9 15 1 0 -7 5 -9 10 -6 6 4 8 11 4 16 -3 6 2 19 12 30 17 19 16 22
-57 97 -41 42 -76 79 -79 82 -3 3 -11 19 -19 35 -7 17 -18 39 -24 50 -6 11
-25 58 -43 104 -41 103 -36 117 46 126 78 9 117 17 102 22 -10 4 -10 10 2 28
14 21 14 23 -7 29 l-22 6 22 19 c15 12 23 31 24 57 1 22 6 47 11 57 7 14 6 18
-9 15 -9 -2 -18 2 -19 7 -2 20 -17 70 -24 80 -4 6 -10 24 -13 41 -4 23 -1 33
14 42 14 9 19 9 19 0 0 -6 3 -9 6 -5 4 3 4 14 0 23 -6 16 -8 15 -21 -2 -14
-18 -14 -18 -15 2 0 21 -22 48 -31 40 -2 -3 -4 11 -3 30 2 42 11 54 25 34 12
-19 2 39 -17 98 -8 23 -14 54 -14 67 0 27 -8 29 -55 13z m-1267 -333 c160 -15
374 -103 387 -159 8 -36 25 -365 19 -380 -4 -11 -17 -7 -59 15 -101 53 -165
99 -165 117 0 9 -9 58 -20 107 -11 50 -24 116 -30 148 -8 38 -16 57 -26 57
-16 0 -18 -24 -5 -83 22 -97 41 -210 36 -215 -7 -8 -52 14 -125 62 -36 24 -72
45 -81 49 -9 3 -23 29 -31 59 -9 29 -30 91 -47 137 -16 46 -28 88 -25 93 3 5
29 7 57 4 29 -3 80 -8 115 -11z m-176 -112 c20 -65 34 -120 32 -122 -5 -6
-102 47 -189 103 -44 28 -92 58 -107 65 -16 8 -28 18 -28 23 0 5 -4 6 -10 3
-5 -3 -10 -2 -10 4 0 10 37 18 147 30 141 17 124 27 165 -106z m-218 -29 c66
-37 152 -85 190 -107 66 -38 69 -41 45 -49 -38 -15 -217 -68 -229 -68 -5 0
-23 26 -39 58 -37 73 -101 232 -94 232 3 0 60 -30 127 -66z m925 -121 c49 -57
118 -186 137 -256 20 -78 29 -187 15 -187 -16 0 -61 23 -152 78 -77 45 -77 46
-83 96 -4 28 -9 120 -13 205 l-6 155 30 -22 c17 -12 49 -43 72 -69z m-549 -96
c87 -45 150 -81 150 -87 0 -3 -60 -28 -133 -57 -123 -48 -162 -72 -144 -89 4
-4 55 13 114 38 198 84 199 84 241 64 41 -19 172 -97 172 -102 0 -4 -291 -177
-321 -191 -25 -10 -35 -7 -101 32 -40 23 -95 62 -122 86 -50 45 -206 234 -206
251 0 5 8 12 18 15 23 10 244 71 257 72 6 0 39 -14 75 -32z m976 -126 c178
-109 266 -258 239 -408 -13 -69 -58 -148 -80 -139 -8 3 -17 1 -21 -5 -7 -12
-56 -3 -96 17 -41 21 -99 87 -94 107 2 9 -2 17 -9 17 -7 0 -22 23 -34 50 -18
41 -21 66 -19 133 3 75 5 82 23 80 19 -1 19 -1 1 12 -17 13 -18 18 -5 76 10
44 19 64 34 70 28 11 26 11 61 -10z m-438 -176 c108 -57 137 -78 127 -95 -12
-19 -123 -68 -183 -81 -65 -13 -260 -7 -316 11 -32 10 -36 14 -25 25 14 13
299 185 307 185 2 0 43 -20 90 -45z m47 -335 c145 -21 277 -73 259 -101 -3 -5
-1 -9 5 -9 5 0 11 5 13 12 6 17 65 -21 119 -79 94 -100 146 -198 152 -288 2
-35 -1 -40 -21 -43 -13 -2 -30 2 -38 8 -10 9 -14 9 -14 1 0 -6 11 -13 25 -17
37 -9 30 -35 -18 -71 -59 -44 -120 -70 -197 -82 -84 -14 -138 -13 -173 2 l-27
12 101 85 c55 47 113 94 127 105 25 19 26 23 19 70 -14 86 -39 189 -49 205
-11 18 -3 -53 18 -154 7 -38 12 -71 10 -73 -4 -5 -186 66 -202 79 -6 4 -24 51
-38 104 -34 118 -54 167 -66 159 -12 -7 8 -72 54 -178 35 -80 17 -84 -115 -23
l-77 35 -47 93 c-26 51 -51 97 -56 103 -17 17 -9 44 14 48 42 8 152 7 222 -3z
m-226 -113 c24 -53 42 -99 39 -102 -5 -6 -78 22 -223 85 -112 49 -111 48 -102
56 8 9 220 64 232 60 5 -1 30 -46 54 -99z"/>
<path d="M2090 4250 c0 -5 5 -10 11 -10 5 0 7 5 4 10 -3 6 -8 10 -11 10 -2 0
-4 -4 -4 -10z"/>
<path d="M2120 4160 c0 -5 5 -10 11 -10 5 0 7 5 4 10 -3 6 -8 10 -11 10 -2 0
-4 -4 -4 -10z"/>
<path d="M2165 4040 c-7 -12 2 -30 16 -30 12 0 12 27 0 35 -5 3 -12 1 -16 -5z"/>
<path d="M1992 3690 c0 -14 2 -19 5 -12 2 6 2 18 0 25 -3 6 -5 1 -5 -13z"/>
<path d="M2120 3355 c14 -7 27 -11 30 -9 6 7 -22 24 -40 23 -9 0 -5 -6 10 -14z"/>
<path d="M7951 4864 c0 -11 3 -14 6 -6 3 7 2 16 -1 19 -3 4 -6 -2 -5 -13z"/>
<path d="M2091 4854 c0 -11 3 -14 6 -6 3 7 2 16 -1 19 -3 4 -6 -2 -5 -13z"/>
<path d="M1980 4740 c-13 -8 -12 -10 3 -10 9 0 17 5 17 10 0 12 -1 12 -20 0z"/>
<path d="M2018 4743 c6 -2 18 -2 25 0 6 3 1 5 -13 5 -14 0 -19 -2 -12 -5z"/>
<path d="M1920 4730 c-14 -3 -20 -8 -15 -11 6 -3 21 -3 35 1 14 3 20 8 15 11
-6 3 -21 3 -35 -1z"/>
<path d="M7962 4679 c-6 -9 -24 -25 -40 -34 -25 -15 -60 -55 -48 -55 2 0 23
16 46 35 23 19 50 35 61 35 12 0 19 7 19 18 0 24 -24 24 -38 1z"/>
<path d="M2207 4684 c-9 -10 2 -24 18 -24 9 0 12 6 9 15 -6 16 -17 19 -27 9z"/>
<path d="M2580 4650 c0 -5 5 -10 10 -10 6 0 10 5 10 10 0 6 -4 10 -10 10 -5 0
-10 -4 -10 -10z"/>
<path d="M2275 4628 c6 -15 45 -42 45 -31 0 5 -12 16 -25 26 -16 11 -23 13
-20 5z"/>
<path d="M8137 4609 c7 -7 15 -10 18 -7 3 3 -2 9 -12 12 -14 6 -15 5 -6 -5z"/>
<path d="M2580 4596 c0 -9 5 -16 10 -16 6 0 10 4 10 9 0 6 -4 13 -10 16 -5 3
-10 -1 -10 -9z"/>
<path d="M2486 3867 c3 -10 9 -15 12 -12 3 3 0 11 -7 18 -10 9 -11 8 -5 -6z"/>
<path d="M2690 3676 c-5 -15 -10 -35 -10 -45 0 -9 -7 -26 -15 -37 -15 -19 -15
-19 -31 1 -17 21 -16 16 5 -27 8 -16 17 -28 20 -28 9 0 54 150 47 157 -3 3
-10 -6 -16 -21z"/>
<path d="M7567 3575 c3 -11 5 -26 5 -32 1 -9 5 -10 15 -2 17 15 17 29 -1 29
-8 0 -16 6 -19 13 -2 6 -2 3 0 -8z"/>
<path d="M2508 3537 c7 -8 36 -19 66 -26 98 -22 108 -23 104 -9 -3 7 -16 12
-30 10 -14 -2 -42 4 -62 12 -20 8 -36 13 -36 11 0 -3 -12 0 -26 6 -22 8 -25 7
-16 -4z"/>
<path d="M7646 3524 c-26 -9 -46 -18 -43 -21 6 -5 107 25 107 33 0 6 -10 4
-64 -12z"/>
<path d="M7565 3500 c3 -5 11 -10 16 -10 6 0 7 5 4 10 -3 6 -11 10 -16 10 -6
0 -7 -4 -4 -10z"/>
<path d="M5444 3427 c2 -43 7 -81 10 -84 9 -9 5 97 -5 132 -5 21 -7 6 -5 -48z"/>
<path d="M4330 3405 c0 -8 2 -15 4 -15 2 0 6 7 10 15 3 8 1 15 -4 15 -6 0 -10
-7 -10 -15z"/>
<path d="M5910 3383 c0 -6 5 -15 10 -18 13 -8 13 -52 1 -60 -5 -3 -12 4 -16
14 -6 19 -8 19 -41 4 -18 -9 -34 -24 -34 -33 0 -8 -12 -23 -27 -33 -24 -15
-25 -17 -5 -12 34 10 26 -2 -15 -22 -21 -9 -41 -21 -44 -26 -12 -17 -22 16
-29 97 -7 78 -7 79 -9 21 -1 -66 14 -135 30 -135 6 0 7 -5 4 -10 -9 -15 57
-102 162 -212 79 -83 93 -103 93 -131 0 -23 -8 -41 -26 -58 -22 -20 -36 -24
-92 -24 -77 0 -138 29 -184 87 -49 62 -63 74 -126 112 -96 58 -104 76 -96 217
7 119 1 170 -18 151 -8 -8 -15 -6 -26 4 -8 8 -12 17 -9 20 5 6 -28 44 -38 44
-3 0 -5 -7 -5 -15 0 -8 7 -15 15 -15 8 0 15 -4 15 -10 0 -5 -7 -7 -15 -4 -9 4
-15 1 -15 -7 0 -8 -6 -5 -16 7 -11 13 -14 14 -11 3 4 -13 -9 -15 -82 -18 -65
-1 -89 -6 -98 -18 -12 -15 -14 -15 -33 2 -13 12 -20 14 -20 5 0 -7 -7 -10 -16
-6 -8 3 -12 2 -9 -3 8 -13 -13 -24 -27 -14 -16 10 -68 10 -68 1 0 -14 -80 -9
-80 5 0 6 -8 -3 -17 -21 -12 -24 -18 -30 -24 -20 -9 13 -10 10 -13 -32 -1 -8
-8 -15 -16 -15 -8 0 -14 -8 -12 -17 1 -9 -2 -19 -8 -23 -5 -3 -10 1 -10 9 0 8
-3 17 -7 19 -5 3 -7 -29 -5 -70 5 -97 -7 -122 -73 -162 -30 -18 -87 -67 -127
-108 -90 -92 -114 -105 -199 -107 -58 -1 -71 2 -93 23 -18 17 -26 35 -26 57 0
36 15 55 128 173 74 77 128 154 138 195 6 26 5 28 -12 22 -10 -4 -15 -4 -12 0
7 7 -42 44 -74 57 -10 3 -18 13 -18 22 0 18 -12 19 -28 3 -7 -7 -12 -8 -12 -2
0 6 5 15 12 22 7 7 9 13 5 13 -7 2 -34 5 -64 9 -11 1 -13 3 -6 7 10 3 10 8 -1
19 -18 18 -26 18 -26 0 0 -8 -3 -16 -7 -18 -15 -6 -54 -89 -47 -100 4 -7 3 -8
-4 -4 -7 4 -12 3 -12 -2 0 -4 -9 -18 -21 -31 -11 -12 -18 -29 -15 -37 4 -10 2
-13 -6 -8 -8 5 -9 2 -5 -10 4 -10 3 -15 -3 -11 -6 3 -61 -47 -122 -111 -62
-64 -137 -135 -167 -157 l-54 -40 59 -27 c33 -15 111 -46 174 -69 63 -23 123
-46 132 -52 10 -5 28 -9 41 -9 13 0 27 -4 33 -8 9 -9 137 -42 234 -61 30 -6
69 -13 85 -16 201 -42 597 -56 819 -30 78 8 204 29 281 46 199 43 520 153 649
221 l30 15 -37 24 c-66 44 -253 242 -311 329 -31 47 -60 90 -66 97 -5 7 -10
17 -10 23 0 6 -4 8 -10 5 -5 -3 -10 2 -10 12 0 21 -29 66 -30 46z"/>
<path d="M4548 3265 c-2 -19 0 -35 4 -35 4 0 8 16 8 35 0 19 -2 35 -4 35 -2 0
-6 -16 -8 -35z"/>
<path d="M2805 3230 c3 -5 8 -10 11 -10 2 0 4 5 4 10 0 6 -5 10 -11 10 -5 0
-7 -4 -4 -10z"/>
<path d="M2365 2879 c-4 -5 -12 -7 -18 -3 -7 3 -3 -3 9 -13 11 -10 25 -26 30
-36 8 -14 10 -11 10 18 0 33 -19 54 -31 34z"/>
<path d="M7850 2849 c0 -11 5 -17 10 -14 6 3 10 13 10 21 0 8 -4 14 -10 14 -5
0 -10 -9 -10 -21z"/>
<path d="M7519 2709 c-7 -4 -11 -10 -8 -13 8 -8 79 5 74 14 -6 10 -50 10 -66
-1z"/>
<path d="M2668 2703 c12 -2 30 -2 40 0 9 3 -1 5 -23 4 -22 0 -30 -2 -17 -4z"/>
<path d="M7390 2690 c-19 -6 -12 -8 29 -9 30 -1 51 2 48 6 -10 10 -49 11 -77
3z"/>
<path d="M2813 2683 c15 -2 37 -2 50 0 12 2 0 4 -28 4 -27 0 -38 -2 -22 -4z"/>
<path d="M8358 1993 c-17 -21 -58 -88 -58 -96 0 -19 46 13 85 59 l47 54 -30 0
c-16 0 -36 -8 -44 -17z"/>
<path d="M3554 1992 c-19 -13 -23 -39 -8 -61 26 -36 74 -21 74 24 0 36 -37 57
-66 37z"/>
<path d="M7102 1988 c-39 -39 17 -100 58 -63 25 22 25 37 2 58 -22 20 -43 22
-60 5z"/>
<path d="M7849 1979 c-14 -26 3 -69 26 -69 30 0 55 20 55 45 0 43 -61 61 -81
24z"/>
<path d="M6388 1863 l-3 -68 -32 -3 c-28 -3 -33 -7 -33 -29 0 -21 4 -24 23
-20 44 12 49 -1 53 -154 2 -79 6 -158 9 -176 10 -59 80 -90 158 -70 20 6 27
14 27 31 0 22 -3 24 -40 19 -33 -5 -45 -1 -64 16 -31 29 -38 79 -30 217 l7
113 66 3 c59 3 66 5 69 25 3 21 -1 22 -65 25 l-68 3 -5 65 c-5 65 -5 65 -37
68 l-32 3 -3 -68z"/>
<path d="M3915 1793 c-114 -35 -179 -149 -154 -272 14 -67 24 -87 69 -129 41
-38 126 -66 173 -57 62 12 125 36 140 53 13 14 13 20 3 35 -13 16 -16 16 -58
-8 -65 -36 -125 -42 -174 -17 -21 11 -47 28 -56 38 -23 27 -40 73 -33 95 6 18
19 19 185 19 l178 0 -5 43 c-8 69 -23 105 -61 147 -33 38 -56 48 -132 63 -14
2 -47 -2 -75 -10z m142 -63 c40 -24 65 -71 61 -113 -3 -31 -5 -32 -53 -35 -89
-6 -236 8 -242 24 -10 26 40 108 77 126 47 24 117 23 157 -2z"/>
<path d="M1308 1783 c-21 -9 -38 -19 -38 -24 0 -13 -31 -39 -41 -34 -5 4 -9
19 -9 36 0 26 -3 29 -30 29 l-30 0 0 -226 0 -225 31 3 31 3 2 150 c2 134 5
154 24 186 27 44 63 64 111 63 97 -3 120 -53 121 -256 l0 -148 29 0 29 0 3
158 c4 145 6 159 27 190 45 62 110 78 170 42 53 -32 62 -69 62 -240 l0 -150
30 0 30 0 0 178 0 179 -29 41 c-35 47 -75 63 -149 58 -57 -4 -93 -23 -118 -61
-21 -33 -35 -31 -56 5 -32 56 -122 75 -200 43z"/>
<path d="M2100 1782 c-37 -12 -56 -24 -58 -36 -6 -31 13 -39 48 -21 39 20 159
22 190 3 22 -14 50 -68 50 -98 0 -25 -19 -30 -123 -30 -109 0 -167 -21 -191
-69 -33 -62 -11 -146 46 -177 13 -8 54 -13 91 -14 70 0 103 13 139 55 15 17
19 18 28 5 5 -8 10 -24 10 -35 0 -15 7 -20 30 -21 l30 -1 0 163 c0 172 -5 196
-49 246 -43 49 -140 61 -241 30z m222 -225 c10 -16 -3 -79 -23 -113 -67 -111
-275 -63 -233 54 15 41 54 63 130 70 76 8 115 5 126 -11z"/>
<path d="M2621 1788 c-48 -18 -74 -57 -75 -114 -1 -41 3 -49 32 -74 19 -15 59
-35 90 -44 104 -31 150 -71 138 -120 -15 -61 -123 -72 -212 -22 l-45 25 -8
-22 c-5 -12 -6 -26 -4 -30 7 -12 82 -43 123 -50 45 -8 141 14 168 39 75 70 36
184 -69 200 -21 4 -39 10 -39 15 0 5 -6 9 -13 9 -25 0 -78 31 -93 56 -21 31
-11 67 21 82 40 18 116 14 160 -8 21 -11 39 -19 39 -17 1 1 6 11 12 22 9 17 6
22 -24 38 -44 23 -155 32 -201 15z"/>
<path d="M3078 1785 c-53 -17 -62 -27 -53 -55 5 -16 10 -18 33 -9 85 33 194
26 223 -14 24 -33 33 -82 17 -95 -8 -6 -58 -12 -113 -13 -117 -2 -146 -10
-180 -51 -39 -46 -35 -113 8 -163 26 -30 43 -39 78 -44 66 -10 126 4 166 39
34 30 60 32 49 3 -8 -20 11 -43 35 -43 26 0 32 44 27 202 -3 117 -6 138 -26
174 -13 22 -38 49 -54 59 -42 24 -149 29 -210 10z m220 -227 c14 -19 -1 -104
-24 -129 -42 -48 -140 -64 -194 -32 -61 36 -47 135 24 163 34 14 182 12 194
-2z"/>
<path d="M5405 1786 c-22 -9 -50 -27 -61 -42 -26 -31 -44 -24 -44 17 0 26 -3
29 -30 29 l-30 0 2 -222 3 -223 26 -3 27 -3 4 148 c4 160 13 192 64 232 20 15
41 21 80 21 45 0 59 -5 86 -29 l33 -29 5 -168 5 -168 33 -4 34 -3 -4 178 c-3
192 -9 215 -64 256 -33 25 -119 31 -169 13z"/>
<path d="M5812 1791 c-11 -6 -13 -44 -10 -177 4 -188 12 -218 71 -254 46 -29
138 -27 180 2 18 12 38 30 45 41 8 10 19 16 25 14 12 -4 13 -8 16 -47 1 -15 8
-20 31 -20 l30 0 0 220 0 220 -30 0 -30 0 -1 -132 c-1 -163 -12 -197 -83 -255
-36 -30 -135 -6 -168 40 -21 29 -23 46 -28 192 -4 132 -8 160 -20 162 -8 2
-21 -1 -28 -6z"/>
<path d="M6902 1783 c-31 -15 -50 -34 -79 -79 -10 -17 -13 -17 -23 -4 -5 8 -8
25 -5 37 8 35 -4 53 -36 53 l-29 0 2 -222 3 -222 30 0 30 0 5 134 c3 74 10
146 17 160 16 36 62 80 92 86 54 11 71 23 71 49 0 30 -27 33 -78 8z"/>
<path d="M7456 1788 c-45 -12 -111 -74 -132 -124 -8 -18 -14 -57 -14 -86 0
-151 85 -238 233 -238 71 0 90 6 145 47 l32 24 -22 18 c-21 18 -23 18 -61 -10
-31 -22 -51 -29 -87 -29 -112 0 -172 61 -173 174 -1 73 15 109 65 149 33 26
45 30 98 30 49 -1 69 -6 102 -28 37 -25 42 -26 57 -11 14 15 13 19 -14 44 -53
50 -136 64 -229 40z"/>
<path d="M8217 1786 c-95 -34 -148 -111 -148 -216 -1 -139 88 -229 227 -230
156 0 238 79 239 231 0 67 -3 81 -30 124 -55 88 -182 128 -288 91z m156 -48
c51 -29 106 -113 107 -163 1 -95 -90 -195 -177 -195 -60 0 -132 52 -158 113
-50 121 36 257 163 257 23 0 52 -6 65 -12z"/>
<path d="M8844 1786 c-17 -7 -41 -28 -54 -46 -25 -35 -37 -31 -42 15 -3 26 -8
30 -36 33 l-33 3 3 -223 3 -223 33 -3 32 -3 1 138 c0 174 14 217 80 251 50 26
110 24 142 -6 42 -38 49 -69 51 -226 l1 -151 33 -3 33 -3 -3 173 c-3 193 -13
229 -69 262 -41 24 -135 31 -175 12z"/>
<path d="M3548 1521 c-3 -248 -4 -271 -22 -290 -14 -15 -31 -21 -63 -21 -36 0
-43 -3 -43 -19 0 -34 73 -43 129 -15 57 28 61 53 61 349 l0 265 -30 0 -29 0
-3 -269z"/>
<path d="M7102 1568 l3 -223 28 -3 27 -3 0 225 0 226 -30 0 -30 0 2 -222z"/>
<path d="M7860 1571 c0 -208 1 -219 19 -224 11 -3 22 -2 25 1 3 3 6 104 6 224
l0 218 -25 0 -25 0 0 -219z"/>
<path d="M4570 1570 c0 -20 5 -20 122 -18 108 3 123 5 126 21 3 15 -8 17 -122
17 -120 0 -126 -1 -126 -20z"/>
<path d="M1162 878 c-15 -15 -15 -51 0 -66 18 -18 43 -15 63 8 37 41 -24 97
-63 58z"/>
<path d="M7352 878 c-17 -17 -15 -42 7 -62 14 -13 24 -14 45 -7 45 18 30 81
-19 81 -12 0 -26 -5 -33 -12z"/>
<path d="M7830 874 c-10 -11 -11 -23 -4 -42 17 -49 84 -38 84 14 0 39 -56 58
-80 28z"/>
<path d="M9042 878 c-7 -7 -12 -21 -12 -33 0 -48 57 -62 80 -20 12 22 11 27
-5 45 -20 23 -45 26 -63 8z"/>
<path d="M554 560 l1 -320 33 0 c29 0 32 3 32 28 0 43 9 45 48 11 42 -37 69
-48 124 -49 90 -3 152 31 190 103 30 56 32 194 4 247 -41 77 -129 120 -219
106 -43 -7 -117 -49 -117 -66 0 -6 -7 -10 -15 -10 -13 0 -15 22 -15 135 l0
135 -33 0 -33 0 0 -320z m293 64 c72 -35 116 -138 94 -220 -13 -48 -55 -95
-105 -119 -117 -56 -246 74 -215 215 25 111 130 169 226 124z"/>
<path d="M7590 555 l0 -325 35 0 35 0 0 325 0 325 -35 0 -35 0 0 -325z"/>
<path d="M8070 560 l0 -320 35 0 c32 0 35 3 35 28 0 43 9 44 53 7 47 -40 86
-50 162 -40 103 12 161 79 172 199 12 130 -42 221 -146 246 -77 18 -131 7
-184 -40 -25 -22 -48 -40 -51 -40 -3 0 -6 63 -6 140 l0 140 -35 0 -35 0 0
-320z m293 66 c97 -40 136 -186 74 -278 -27 -39 -91 -78 -130 -78 -153 -1
-231 206 -119 317 54 54 110 67 175 39z"/>
<path d="M3498 753 l-3 -68 -32 -3 c-24 -2 -33 -8 -33 -22 0 -14 9 -20 33 -22
l32 -3 10 -170 c6 -104 15 -179 23 -193 14 -25 67 -52 101 -52 33 0 71 22 71
42 0 15 -8 18 -45 18 -32 0 -51 6 -65 20 -19 19 -20 31 -18 178 l3 157 65 5
c51 4 66 9 68 23 3 15 -5 17 -67 17 -79 0 -74 -6 -71 88 l1 52 -35 0 -35 0 -3
-67z"/>
<path d="M1508 675 c-54 -18 -113 -79 -128 -134 -15 -53 -12 -143 5 -184 19
-46 61 -90 107 -110 64 -30 200 -18 255 22 27 19 28 27 8 47 -13 13 -19 12
-51 -12 -88 -67 -220 -30 -263 74 -25 61 -21 62 180 62 l182 0 -7 53 c-17 123
-75 185 -183 193 -35 2 -77 -2 -105 -11z m159 -52 c34 -22 60 -63 68 -106 6
-28 4 -37 -6 -37 -8 0 -74 -1 -147 -3 -85 -2 -136 0 -141 7 -27 32 54 148 110
159 35 7 89 -2 116 -20z"/>
<path d="M2093 676 c-17 -8 -41 -28 -54 -45 -30 -41 -39 -39 -39 9 0 39 -1 40
-36 40 l-37 0 7 -37 c3 -21 6 -122 6 -225 l0 -188 30 0 30 0 0 143 c0 159 14
210 66 244 34 22 101 24 137 4 55 -29 62 -53 67 -226 l5 -160 33 -3 32 -3 0
149 c0 171 -13 232 -60 277 -26 25 -40 30 -93 32 -39 2 -74 -2 -94 -11z"/>
<path d="M2600 674 c-86 -37 -125 -105 -125 -214 0 -119 49 -193 150 -224 68
-22 118 -17 201 20 48 21 58 38 34 59 -18 16 -22 17 -37 3 -58 -51 -134 -61
-197 -27 -57 30 -83 65 -88 119 l-3 25 183 3 182 2 0 31 c0 16 -5 50 -11 75
-14 55 -83 128 -130 138 -53 10 -122 6 -159 -10z m171 -51 c31 -18 69 -85 69
-120 0 -31 -23 -35 -169 -27 l-133 7 5 38 c6 46 32 83 72 103 41 21 120 20
156 -1z"/>
<path d="M3105 682 c-55 -18 -85 -60 -85 -120 0 -54 36 -95 101 -112 24 -7 52
-16 61 -21 10 -5 24 -9 31 -9 8 0 26 -11 41 -25 36 -33 35 -76 -1 -105 -39
-31 -131 -24 -191 14 -41 25 -42 26 -52 6 -18 -34 18 -58 116 -80 46 -11 118
-1 162 22 49 25 67 105 35 158 -19 32 -32 40 -123 71 -93 32 -120 53 -120 94
0 48 36 68 109 63 31 -2 71 -11 89 -20 30 -16 33 -15 42 2 8 16 6 22 -14 35
-48 32 -146 44 -201 27z"/>
<path d="M3960 687 c-3 -3 -17 -8 -30 -10 -43 -7 -90 -29 -90 -40 0 -7 4 -18
9 -26 7 -11 14 -11 42 3 51 26 117 30 161 12 45 -19 66 -49 70 -96 l3 -35
-115 -5 c-98 -4 -121 -9 -152 -28 -68 -42 -76 -141 -18 -197 27 -25 40 -30 99
-33 75 -4 120 12 154 54 23 29 37 23 37 -17 0 -26 3 -29 31 -29 l30 0 -3 174
c-3 193 -8 209 -77 249 -30 18 -140 35 -151 24z m168 -263 c8 -81 -60 -154
-146 -155 -63 -2 -98 19 -110 64 -12 45 -4 74 27 96 34 24 59 29 151 27 l75
-1 3 -31z"/>
<path d="M4510 665 c-19 -14 -41 -37 -48 -50 -21 -42 -42 -32 -42 20 0 43 -1
45 -30 45 l-30 0 0 -226 0 -225 30 3 31 3 5 135 c5 113 9 141 27 173 23 42 64
71 115 82 27 6 32 11 32 36 0 25 -4 29 -28 29 -15 0 -44 -11 -62 -25z"/>
<path d="M5770 679 c-86 -26 -139 -100 -148 -206 -7 -94 28 -172 98 -216 67
-42 197 -38 267 7 37 24 39 31 18 53 -14 14 -18 14 -33 0 -47 -42 -148 -60
-195 -35 -53 30 -106 111 -93 143 4 13 34 15 187 15 l182 0 -6 62 c-6 69 -41
130 -93 160 -38 22 -137 31 -184 17z m142 -50 c46 -25 103 -149 68 -149 -6 0
-75 -1 -153 -2 -139 -3 -142 -3 -145 19 -7 46 56 125 113 143 32 9 88 4 117
-11z"/>
<path d="M6285 676 c-37 -17 -64 -41 -95 -85 -18 -27 -24 -51 -28 -111 -6 -97
8 -141 62 -194 77 -77 200 -81 272 -10 18 19 38 34 44 34 6 0 10 -46 10 -125
l0 -125 30 0 30 0 0 310 0 310 -30 0 c-28 0 -30 -2 -30 -38 0 -21 -3 -41 -6
-45 -4 -3 -25 13 -48 37 -55 56 -140 73 -211 42z m149 -47 c73 -20 116 -87
115 -177 -1 -66 -18 -102 -71 -145 -31 -25 -46 -30 -92 -30 -66 0 -113 30
-141 89 -47 99 -19 201 69 255 35 22 64 24 120 8z"/>
<path d="M8846 678 c-34 -20 -58 -43 -67 -65 -5 -13 -15 -23 -24 -23 -11 0
-15 11 -15 45 0 43 -1 45 -30 45 l-30 0 0 -225 0 -225 29 0 29 0 4 133 c3 122
6 136 30 178 31 53 60 75 112 84 31 6 36 11 36 36 0 25 -4 29 -27 29 -16 0
-36 -6 -47 -12z"/>
<path d="M9390 670 c-95 -32 -140 -103 -140 -223 0 -88 30 -143 105 -192 44
-29 205 -29 254 0 85 50 126 153 102 260 -10 45 -22 67 -59 105 -70 72 -153
88 -262 50z m170 -51 c58 -33 90 -91 90 -164 0 -175 -200 -248 -304 -112 -66
87 -33 223 69 284 32 19 103 15 145 -8z"/>
<path d="M1162 458 l3 -223 28 -2 27 -2 0 225 0 224 -30 0 -31 0 3 -222z"/>
<path d="M6780 523 c0 -177 11 -217 69 -266 27 -22 42 -27 88 -27 63 0 115 21
138 56 22 34 33 30 37 -13 3 -34 6 -38 36 -40 l32 -3 0 225 0 225 -29 0 -29 0
-4 -147 c-5 -167 -15 -196 -79 -233 -65 -36 -135 -23 -169 32 -18 29 -20 51
-20 191 l0 157 -35 0 -35 0 0 -157z"/>
<path d="M7354 463 c0 -185 3 -219 16 -225 40 -18 40 -16 40 217 l0 225 -28 0
-28 0 0 -217z"/>
<path d="M7838 673 c-3 -9 -3 -59 0 -280 l2 -153 29 0 29 0 1 220 2 220 -30 0
c-16 0 -31 -3 -33 -7z"/>
<path d="M9042 458 l3 -223 28 -3 27 -3 0 225 0 226 -30 0 -30 0 2 -222z"/>
<path d="M4983 465 c-3 -9 -3 -19 1 -22 3 -3 60 -6 126 -7 118 -1 120 -1 120
22 0 22 -2 22 -120 22 -100 0 -122 -3 -127 -15z"/>
</g>
</svg>
